HIERARCHY
ROOT root
{
	OFFSET	0	13.1	24.9
	CHANNELS 6  Xposition Yposition Zposition Xrotation Yrotation Zrotation
	JOINT spine_1
	{
		OFFSET	0	9.99999	0
		CHANNELS 3  Xrotation Yrotation Zrotation
		JOINT spine_2
		{
			OFFSET	0	112	-10
			CHANNELS 3  Xrotation Yrotation Zrotation
			JOINT spine_3
			{
				OFFSET	0	206.5	19.3
				CHANNELS 3  Xrotation Yrotation Zrotation
				JOINT spine_4
				{
					OFFSET	0	110.4	14.6
					CHANNELS 3  Xrotation Yrotation Zrotation
					JOINT neck_1
					{
						OFFSET	0	71.8	-50.3
						CHANNELS 3  Xrotation Yrotation Zrotation
						JOINT neck_2
						{
							OFFSET	0	86.2	-25.8
							CHANNELS 3  Xrotation Yrotation Zrotation
							JOINT head_ee
							{
								OFFSET	0	179.8	-8.7
								CHANNELS 3  Xrotation Yrotation Zrotation
								End Site
								{
									OFFSET	1	0	0
								}
							}
						}
					}
					JOINT left_clavicle
					{
						OFFSET	-43.2	22.4	-70.8
						CHANNELS 3  Xrotation Yrotation Zrotation
						JOINT left_shoulder
						{
							OFFSET	-93.9	-5.79999	48.7
							CHANNELS 3  Xrotation Yrotation Zrotation
							JOINT left_elbow
							{
								OFFSET	-291.4	-30.8	15.2
								CHANNELS 3  Xrotation Yrotation Zrotation
								JOINT left_lowarm_twist
								{
									OFFSET	-110.7	-3.89999	13.6
									CHANNELS 3  Xrotation Yrotation Zrotation
									JOINT left_hand
									{
										OFFSET	-110.7	-3.89999	13.6
										CHANNELS 3  Xrotation Yrotation Zrotation
										JOINT left_ee
										{
											OFFSET	-80.8	-5.10001	12.1
											CHANNELS 3  Xrotation Yrotation Zrotation
											End Site
											{
												OFFSET	1	0	0
											}
										}
									}
								}
							}
						}
					}
					JOINT right_clavicle
					{
						OFFSET	43.2	22.4	-70.8
						CHANNELS 3  Xrotation Yrotation Zrotation
						JOINT right_shoulder
						{
							OFFSET	93.9	-5.79999	48.7
							CHANNELS 3  Xrotation Yrotation Zrotation
							JOINT right_elbow
							{
								OFFSET	291.4	-30.8	15.2
								CHANNELS 3  Xrotation Yrotation Zrotation
								JOINT right_lowarm_twist
								{
									OFFSET	110.7	-3.89999	13.6
									CHANNELS 3  Xrotation Yrotation Zrotation
									JOINT right_hand
									{
										OFFSET	110.7	-3.89999	13.6
										CHANNELS 3  Xrotation Yrotation Zrotation
										JOINT right_ee
										{
											OFFSET	80.8	-5.10001	12.1
											CHANNELS 3  Xrotation Yrotation Zrotation
											End Site
											{
												OFFSET	1	0	0
											}
										}
									}
								}
							}
						}
					}
				}
			}
		}
	}
	JOINT left_hip
	{
		OFFSET	-82.8	-127.5	0.300001
		CHANNELS 3  Xrotation Yrotation Zrotation
		JOINT left_knee
		{
			OFFSET	-28.2	-396.7	2.2
			CHANNELS 3  Xrotation Yrotation Zrotation
			JOINT left_ankle
			{
				OFFSET	-11.7	-411.3	35.4
				CHANNELS 3  Xrotation Yrotation Zrotation
				JOINT left_toes
				{
					OFFSET	0	-60	-88.6
					CHANNELS 3  Xrotation Yrotation Zrotation
					JOINT left_foot_ee
					{
						OFFSET	-22.5	-16.5	-42.2
						CHANNELS 3  Xrotation Yrotation Zrotation
						End Site
						{
							OFFSET	1	0	0
						}
					}
				}
			}
		}
	}
	JOINT right_hip
	{
		OFFSET	82.8	-127.5	0.300001
		CHANNELS 3  Xrotation Yrotation Zrotation
		JOINT right_knee
		{
			OFFSET	28.2	-396.7	2.2
			CHANNELS 3  Xrotation Yrotation Zrotation
			JOINT right_ankle
			{
				OFFSET	11.7	-411.3	35.4
				CHANNELS 3  Xrotation Yrotation Zrotation
				JOINT right_toes
				{
					OFFSET	0	-60	-88.6
					CHANNELS 3  Xrotation Yrotation Zrotation
					JOINT right_foot_ee
					{
						OFFSET	22.5	-16.5	-42.2
						CHANNELS 3  Xrotation Yrotation Zrotation
						End Site
						{
							OFFSET	1	0	0
						}
					}
				}
			}
		}
	}
}
MOTION
Frames: 12
Frame Time: 0.02
3574.42 741.953 -1474.73 -31.4740502947 85.907557998 27.3644295488 0.568797 0.957478 2.99288 0.573454 0.765184 3.04767 0.616578 0.141865 3.13897 0.603393 0.63559 3.07728 -2.57847 11.1033 -3.13795 -2.2665 22.5887 -1.77873 -0.0 0.0 -0.0 -4.12254 24.997 -2.58617 -8.4265 -19.7281 66.7574 2.47827 -50.8273 1.17763 -58.7627 -5.12929 5.061 -0.658231 18.4995 3.51836 -0.0 0.0 -0.0 9.72608 11.1 -19.215 -19.2478 36.2776 -55.9406 0.919852 24.4969 -0.199697 -3.82592 0.150414 -0.465243 2.40431 -29.6421 -25.277 0.0 0.0 0.0 -7.97113 69.8872 5.07208 -3.80679 0.137912 0.567841 7.79008 -28.5635 -1.38885 6.88105 -0.0 -0.0 -0.0 0.0 -0.0 12.7471 25.1923 5.19595 -23.4608 -0.238515 -3.56726 6.00683 8.08118 0.9007 21.3009 -0.0 -0.0 0.0 0.0 0.0 
3574.42 741.953 -1474.73 -29.329830988 85.6373959465 25.2143676376 0.568797 0.957478 2.99288 0.573454 0.765184 3.04767 0.616578 0.141865 3.13897 0.603393 0.63559 3.07728 -2.57847 11.1033 -3.13795 -2.2665 22.5887 -1.77873 -0.0 0.0 -0.0 -4.12254 24.997 -2.58617 -8.4265 -19.7281 66.7574 2.47827 -50.8273 1.17763 -58.7627 -5.12929 5.061 -0.658231 18.4995 3.51836 -0.0 0.0 -0.0 9.72608 11.1 -19.215 -19.2478 36.2776 -55.9406 0.919852 24.4969 -0.199697 -3.82592 0.150414 -0.465243 2.40431 -29.6421 -25.277 0.0 0.0 0.0 -7.97113 69.8872 5.07208 -3.80679 0.137912 0.567841 7.79008 -28.5635 -1.38885 6.88105 -0.0 -0.0 -0.0 0.0 -0.0 12.7471 25.1923 5.19595 -23.4608 -0.238515 -3.56726 6.00683 8.08118 0.9007 21.3009 -0.0 -0.0 0.0 0.0 0.0 
3574.42 741.953 -1474.73 -27.0500493549 85.3002608089 22.9274499979 0.568797 0.957478 2.99288 0.573454 0.765184 3.04767 0.616578 0.141865 3.13897 0.603393 0.63559 3.07728 -2.57847 11.1033 -3.13795 -2.2665 22.5887 -1.77873 -0.0 0.0 -0.0 -4.12254 24.997 -2.58617 -8.4265 -19.7281 66.7574 2.47827 -50.8273 1.17763 -58.7627 -5.12929 5.061 -0.658231 18.4995 3.51836 -0.0 0.0 -0.0 9.72608 11.1 -19.215 -19.2478 36.2776 -55.9406 0.919852 24.4969 -0.199697 -3.82592 0.150414 -0.465243 2.40431 -29.6421 -25.277 0.0 0.0 0.0 -7.97113 69.8872 5.07208 -3.80679 0.137912 0.567841 7.79008 -28.5635 -1.38885 6.88105 -0.0 -0.0 -0.0 0.0 -0.0 12.7471 25.1923 5.19595 -23.4608 -0.238515 -3.56726 6.00683 8.08118 0.9007 21.3009 -0.0 -0.0 0.0 0.0 0.0 
3574.42 741.953 -1474.73 -22.6297558077 84.4428548527 18.4895319056 0.568797 0.957478 2.99288 0.573454 0.765184 3.04767 0.616578 0.141865 3.13897 0.603393 0.63559 3.07728 -2.57847 11.1033 -3.13795 -2.2665 22.5887 -1.77873 -0.0 0.0 -0.0 -4.12254 24.997 -2.58617 -8.4265 -19.7281 66.7574 2.47827 -50.8273 1.17763 -58.7627 -5.12929 5.061 -0.658231 18.4995 3.51836 -0.0 0.0 -0.0 9.72608 11.1 -19.215 -19.2478 36.2776 -55.9406 0.919852 24.4969 -0.199697 -3.82592 0.150414 -0.465243 2.40431 -29.6421 -25.277 0.0 0.0 0.0 -7.97113 69.8872 5.07208 -3.80679 0.137912 0.567841 7.79008 -28.5635 -1.38885 6.88105 -0.0 -0.0 -0.0 0.0 -0.0 12.7471 25.1923 5.19595 -23.4608 -0.238515 -3.56726 6.00683 8.08118 0.9007 21.3009 -0.0 -0.0 0.0 0.0 0.0 
3574.42 741.953 -1474.73 -19.8773735314 83.7084028613 15.7224327723 0.568797 0.957478 2.99288 0.573454 0.765184 3.04767 0.616578 0.141865 3.13897 0.603393 0.63559 3.07728 -2.57847 11.1033 -3.13795 -2.2665 22.5887 -1.77873 -0.0 0.0 -0.0 -4.12254 24.997 -2.58617 -8.4265 -19.7281 66.7574 2.47827 -50.8273 1.17763 -58.7627 -5.12929 5.061 -0.658231 18.4995 3.51836 -0.0 0.0 -0.0 9.72608 11.1 -19.215 -19.2478 36.2776 -55.9406 0.919852 24.4969 -0.199697 -3.82592 0.150414 -0.465243 2.40431 -29.6421 -25.277 0.0 0.0 0.0 -7.97113 69.8872 5.07208 -3.80679 0.137912 0.567841 7.79008 -28.5635 -1.38885 6.88105 -0.0 -0.0 -0.0 0.0 -0.0 12.7471 25.1923 5.19595 -23.4608 -0.238515 -3.56726 6.00683 8.08118 0.9007 21.3009 -0.0 -0.0 0.0 0.0 0.0 
3574.42 741.953 -1474.73 -17.1798417468 82.7528613142 13.0060650564 0.568797 0.957478 2.99288 0.573454 0.765184 3.04767 0.616578 0.141865 3.13897 0.603393 0.63559 3.07728 -2.57847 11.1033 -3.13795 -2.2665 22.5887 -1.77873 -0.0 0.0 -0.0 -4.12254 24.997 -2.58617 -8.4265 -19.7281 66.7574 2.47827 -50.8273 1.17763 -58.7627 -5.12929 5.061 -0.658231 18.4995 3.51836 -0.0 0.0 -0.0 9.72608 11.1 -19.215 -19.2478 36.2776 -55.9406 0.919852 24.4969 -0.199697 -3.82592 0.150414 -0.465243 2.40431 -29.6421 -25.277 0.0 0.0 0.0 -7.97113 69.8872 5.07208 -3.80679 0.137912 0.567841 7.79008 -28.5635 -1.38885 6.88105 -0.0 -0.0 -0.0 0.0 -0.0 12.7471 25.1923 5.19595 -23.4608 -0.238515 -3.56726 6.00683 8.08118 0.9007 21.3009 -0.0 -0.0 0.0 0.0 0.0 
3574.42 741.953 -1474.73 -14.8584549813 81.64502506 10.6631094383 0.568797 0.957478 2.99288 0.573454 0.765184 3.04767 0.616578 0.141865 3.13897 0.603393 0.63559 3.07728 -2.57847 11.1033 -3.13795 -2.2665 22.5887 -1.77873 -0.0 0.0 -0.0 -4.12254 24.997 -2.58617 -8.4265 -19.7281 66.7574 2.47827 -50.8273 1.17763 -58.7627 -5.12929 5.061 -0.658231 18.4995 3.51836 -0.0 0.0 -0.0 9.72608 11.1 -19.215 -19.2478 36.2776 -55.9406 0.919852 24.4969 -0.199697 -3.82592 0.150414 -0.465243 2.40431 -29.6421 -25.277 0.0 0.0 0.0 -7.97113 69.8872 5.07208 -3.80679 0.137912 0.567841 7.79008 -28.5635 -1.38885 6.88105 -0.0 -0.0 -0.0 0.0 -0.0 12.7471 25.1923 5.19595 -23.4608 -0.238515 -3.56726 6.00683 8.08118 0.9007 21.3009 -0.0 -0.0 0.0 0.0 0.0 
3574.42 741.953 -1474.73 -12.4275148186 80.0294224358 8.20100364155 0.568797 0.957478 2.99288 0.573454 0.765184 3.04767 0.616578 0.141865 3.13897 0.603393 0.63559 3.07728 -2.57847 11.1033 -3.13795 -2.2665 22.5887 -1.77873 -0.0 0.0 -0.0 -4.12254 24.997 -2.58617 -8.4265 -19.7281 66.7574 2.47827 -50.8273 1.17763 -58.7627 -5.12929 5.061 -0.658231 18.4995 3.51836 -0.0 0.0 -0.0 9.72608 11.1 -19.215 -19.2478 36.2776 -55.9406 0.919852 24.4969 -0.199697 -3.82592 0.150414 -0.465243 2.40431 -29.6421 -25.277 0.0 0.0 0.0 -7.97113 69.8872 5.07208 -3.80679 0.137912 0.567841 7.79008 -28.5635 -1.38885 6.88105 -0.0 -0.0 -0.0 0.0 -0.0 12.7471 25.1923 5.19595 -23.4608 -0.238515 -3.56726 6.00683 8.08118 0.9007 21.3009 -0.0 -0.0 0.0 0.0 0.0 
3574.42 741.953 -1474.73 -10.2196865359 77.8769232497 5.95190134539 0.568797 0.957478 2.99288 0.573454 0.765184 3.04767 0.616578 0.141865 3.13897 0.603393 0.63559 3.07728 -2.57847 11.1033 -3.13795 -2.2665 22.5887 -1.77873 -0.0 0.0 -0.0 -4.12254 24.997 -2.58617 -8.4265 -19.7281 66.7574 2.47827 -50.8273 1.17763 -58.7627 -5.12929 5.061 -0.658231 18.4995 3.51836 -0.0 0.0 -0.0 9.72608 11.1 -19.215 -19.2478 36.2776 -55.9406 0.919852 24.4969 -0.199697 -3.82592 0.150414 -0.465243 2.40431 -29.6421 -25.277 0.0 0.0 0.0 -7.97113 69.8872 5.07208 -3.80679 0.137912 0.567841 7.79008 -28.5635 -1.38885 6.88105 -0.0 -0.0 -0.0 0.0 -0.0 12.7471 25.1923 5.19595 -23.4608 -0.238515 -3.56726 6.00683 8.08118 0.9007 21.3009 -0.0 -0.0 0.0 0.0 0.0 
3574.42 741.953 -1474.73 -8.36121125345 75.1528018882 4.04128561917 0.568797 0.957478 2.99288 0.573454 0.765184 3.04767 0.616578 0.141865 3.13897 0.603393 0.63559 3.07728 -2.57847 11.1033 -3.13795 -2.2665 22.5887 -1.77873 -0.0 0.0 -0.0 -4.12254 24.997 -2.58617 -8.4265 -19.7281 66.7574 2.47827 -50.8273 1.17763 -58.7627 -5.12929 5.061 -0.658231 18.4995 3.51836 -0.0 0.0 -0.0 9.72608 11.1 -19.215 -19.2478 36.2776 -55.9406 0.919852 24.4969 -0.199697 -3.82592 0.150414 -0.465243 2.40431 -29.6421 -25.277 0.0 0.0 0.0 -7.97113 69.8872 5.07208 -3.80679 0.137912 0.567841 7.79008 -28.5635 -1.38885 6.88105 -0.0 -0.0 -0.0 0.0 -0.0 12.7471 25.1923 5.19595 -23.4608 -0.238515 -3.56726 6.00683 8.08118 0.9007 21.3009 -0.0 -0.0 0.0 0.0 0.0 
3574.42 741.953 -1474.73 -6.63062870881 71.1740131331 2.23430109975 0.568797 0.957478 2.99288 0.573454 0.765184 3.04767 0.616578 0.141865 3.13897 0.603393 0.63559 3.07728 -2.57847 11.1033 -3.13795 -2.2665 22.5887 -1.77873 -0.0 0.0 -0.0 -4.12254 24.997 -2.58617 -8.4265 -19.7281 66.7574 2.47827 -50.8273 1.17763 -58.7627 -5.12929 5.061 -0.658231 18.4995 3.51836 -0.0 0.0 -0.0 9.72608 11.1 -19.215 -19.2478 36.2776 -55.9406 0.919852 24.4969 -0.199697 -3.82592 0.150414 -0.465243 2.40431 -29.6421 -25.277 0.0 0.0 0.0 -7.97113 69.8872 5.07208 -3.80679 0.137912 0.567841 7.79008 -28.5635 -1.38885 6.88105 -0.0 -0.0 -0.0 0.0 -0.0 12.7471 25.1923 5.19595 -23.4608 -0.238515 -3.56726 6.00683 8.08118 0.9007 21.3009 -0.0 -0.0 0.0 0.0 0.0 
3568.68120322 737.611 -1486.89985339 -3.94064830105 68.1225583296 -0.545477493378 0.452673 0.774481 3.02717 0.457584 0.580378 3.07026 0.491116 -0.0508612 3.12417 0.47777 0.442941 3.09306 -3.64733 10.8914 -3.09086 -3.40617 22.2501 -1.54743 -0.0 0.0 -0.0 -4.25935 24.6312 -2.85606 -9.09696 -17.3257 66.6961 2.38285 -49.7222 1.10424 -58.7004 -5.12159 5.05889 -0.658449 18.5038 3.51883 -0.0 0.0 -0.0 9.91701 12.6807 -19.5938 -17.0047 37.189 -56.2895 0.971453 25.6978 -0.221585 -3.52448 0.137438 -0.428957 2.42757 -30.0115 -25.4869 0.0 0.0 0.0 -1.63996 69.8668 -1.21171 -4.08074 0.146375 0.609032 5.93324 -25.1924 -1.0225 5.11444 -0.0 -0.0 -0.0 0.0 -0.0 11.2521 24.1378 5.63117 -23.8756 -0.229531 -3.63028 6.31119 8.56217 0.947722 22.1931 -0.0 -0.0 0.0 0.0 0.0 
